HIERARCHY
ROOT Model
{
	OFFSET 0 0 0
	CHANNELS 6 Xposition Yposition Zposition Zrotation Xrotation Yrotation
	JOINT Model1
	{
		OFFSET 0 -2.25479 2.99383
		CHANNELS 3 Zrotation Xrotation Yrotation
		JOINT Model2
		{
			OFFSET 12.111 0 0
			CHANNELS 3 Zrotation Xrotation Yrotation
			JOINT Model3
			{
				OFFSET 11.5502 0 0
				CHANNELS 3 Zrotation Xrotation Yrotation
				JOINT Model4
				{
					OFFSET 11.781 0 0
					CHANNELS 3 Zrotation Xrotation Yrotation
					JOINT Model5
					{
						OFFSET 20.0601 0 0
						CHANNELS 3 Zrotation Xrotation Yrotation
						JOINT Model6
						{
							OFFSET 11.1962 0 0
							CHANNELS 3 Zrotation Xrotation Yrotation
							End Site
							{
								OFFSET 0 0 0
							}
						}
					}
					JOINT Model7
					{
						OFFSET 10.8223 0.417534 3.51114
						CHANNELS 3 Zrotation Xrotation Yrotation
						JOINT Model8
						{
							OFFSET -6.07943 0 0
							CHANNELS 3 Zrotation Xrotation Yrotation
							JOINT Model9
							{
								OFFSET -0.277416 10.39 -0.0512466
								CHANNELS 3 Zrotation Xrotation Yrotation
								JOINT Model10
								{
									OFFSET -3.4391 -0.282043 1.86678
									CHANNELS 3 Zrotation Xrotation Yrotation
									JOINT Model11
									{
										OFFSET 13.0269 0 0
										CHANNELS 3 Zrotation Xrotation Yrotation
										JOINT Model12
										{
											OFFSET 10.8866 0 0
											CHANNELS 3 Zrotation Xrotation Yrotation
											JOINT Model13
											{
												OFFSET 16.7317 0 0
												CHANNELS 3 Zrotation Xrotation Yrotation
												JOINT Model14
												{
													OFFSET 11.8292 0 0
													CHANNELS 3 Zrotation Xrotation Yrotation
													JOINT Model15
													{
														OFFSET 4.82751 -3.73566 -0.836517
														CHANNELS 3 Zrotation Xrotation Yrotation
														JOINT Model16
														{
															OFFSET 3.75311 -0.0582886 -0.0186462
															CHANNELS 3 Zrotation Xrotation Yrotation
															JOINT Model17
															{
																OFFSET 2.88688 0.0192337 0.014801
																CHANNELS 3 Zrotation Xrotation Yrotation
																End Site
																{
																	OFFSET 0 0 0
																}
															}
														}
													}
													JOINT Model18
													{
														OFFSET 9.72197 -3.06458 0.23877
														CHANNELS 3 Zrotation Xrotation Yrotation
														JOINT Model19
														{
															OFFSET 4.61131 0 0
															CHANNELS 3 Zrotation Xrotation Yrotation
															JOINT Model20
															{
																OFFSET 2.8969 -7.62939e-006 0
																CHANNELS 3 Zrotation Xrotation Yrotation
																End Site
																{
																	OFFSET 0 0 0
																}
															}
														}
													}
													JOINT Model21
													{
														OFFSET 9.54431 -0.745064 0.588936
														CHANNELS 3 Zrotation Xrotation Yrotation
														JOINT Model22
														{
															OFFSET 5.33978 0 0
															CHANNELS 3 Zrotation Xrotation Yrotation
															JOINT Model23
															{
																OFFSET 3.03619 7.62939e-006 0
																CHANNELS 3 Zrotation Xrotation Yrotation
																End Site
																{
																	OFFSET 0 0 0
																}
															}
														}
													}
													JOINT Model24
													{
														OFFSET 9.47759 1.51286 0.485123
														CHANNELS 3 Zrotation Xrotation Yrotation
														JOINT Model25
														{
															OFFSET 4.96136 7.62939e-006 0
															CHANNELS 3 Zrotation Xrotation Yrotation
															JOINT Model26
															{
																OFFSET 2.51966 0 0
																CHANNELS 3 Zrotation Xrotation Yrotation
																End Site
																{
																	OFFSET 0 0 0
																}
															}
														}
													}
													JOINT Model27
													{
														OFFSET 9.34247 3.34117 -0.239281
														CHANNELS 3 Zrotation Xrotation Yrotation
														JOINT Model28
														{
															OFFSET 3.2826 2.28882e-005 0
															CHANNELS 3 Zrotation Xrotation Yrotation
															JOINT Model29
															{
																OFFSET 2.1292 0 0
																CHANNELS 3 Zrotation Xrotation Yrotation
																End Site
																{
																	OFFSET 0 0 0
																}
															}
														}
													}
												}
											}
										}
									}
								}
							}
						}
					}
					JOINT Model30
					{
						OFFSET 10.8223 0.4179 -3.51107
						CHANNELS 3 Zrotation Xrotation Yrotation
						JOINT Model31
						{
							OFFSET 6.07943 0 0
							CHANNELS 3 Zrotation Xrotation Yrotation
							JOINT Model32
							{
								OFFSET 0.277416 -10.39 0.0512466
								CHANNELS 3 Zrotation Xrotation Yrotation
								JOINT Model33
								{
									OFFSET 3.4391 0.282043 -1.86678
									CHANNELS 3 Zrotation Xrotation Yrotation
									JOINT Model34
									{
										OFFSET -13.0269 0 0
										CHANNELS 3 Zrotation Xrotation Yrotation
										JOINT Model35
										{
											OFFSET -10.8866 0 0
											CHANNELS 3 Zrotation Xrotation Yrotation
											JOINT Model36
											{
												OFFSET -16.7317 0 0
												CHANNELS 3 Zrotation Xrotation Yrotation
												JOINT Model37
												{
													OFFSET -11.8292 0 0
													CHANNELS 3 Zrotation Xrotation Yrotation
													JOINT Model38
													{
														OFFSET -4.82751 3.73566 0.836517
														CHANNELS 3 Zrotation Xrotation Yrotation
														JOINT Model39
														{
															OFFSET -3.75311 0.0582886 0.0186462
															CHANNELS 3 Zrotation Xrotation Yrotation
															JOINT Model40
															{
																OFFSET -2.88688 -0.0192337 -0.014801
																CHANNELS 3 Zrotation Xrotation Yrotation
																End Site
																{
																	OFFSET 0 0 0
																}
															}
														}
													}
													JOINT Model41
													{
														OFFSET -9.72197 3.06459 -0.23877
														CHANNELS 3 Zrotation Xrotation Yrotation
														JOINT Model42
														{
															OFFSET -4.6113 0 0
															CHANNELS 3 Zrotation Xrotation Yrotation
															JOINT Model43
															{
																OFFSET -2.8969 0 0
																CHANNELS 3 Zrotation Xrotation Yrotation
																End Site
																{
																	OFFSET 0 0 0
																}
															}
														}
													}
													JOINT Model44
													{
														OFFSET -9.5443 0.745064 -0.588936
														CHANNELS 3 Zrotation Xrotation Yrotation
														JOINT Model45
														{
															OFFSET -5.33978 0 0
															CHANNELS 3 Zrotation Xrotation Yrotation
															JOINT Model46
															{
																OFFSET -3.03619 -1.52588e-005 0
																CHANNELS 3 Zrotation Xrotation Yrotation
																End Site
																{
																	OFFSET 0 0 0
																}
															}
														}
													}
													JOINT Model47
													{
														OFFSET -9.47759 -1.51286 -0.485123
														CHANNELS 3 Zrotation Xrotation Yrotation
														JOINT Model48
														{
															OFFSET -4.96136 -1.52588e-005 0
															CHANNELS 3 Zrotation Xrotation Yrotation
															JOINT Model49
															{
																OFFSET -2.51966 0 0
																CHANNELS 3 Zrotation Xrotation Yrotation
																End Site
																{
																	OFFSET 0 0 0
																}
															}
														}
													}
													JOINT Model50
													{
														OFFSET -9.34246 -3.34118 0.239281
														CHANNELS 3 Zrotation Xrotation Yrotation
														JOINT Model51
														{
															OFFSET -3.2826 -1.90735e-005 0
															CHANNELS 3 Zrotation Xrotation Yrotation
															JOINT Model52
															{
																OFFSET -2.1292 0 0
																CHANNELS 3 Zrotation Xrotation Yrotation
																End Site
																{
																	OFFSET 0 0 0
																}
															}
														}
													}
												}
											}
										}
									}
								}
							}
						}
					}
				}
			}
		}
	}
	JOINT Model53
	{
		OFFSET 4.38026 -2.14632 -1.11516
		CHANNELS 3 Zrotation Xrotation Yrotation
		JOINT Model54
		{
			OFFSET 0 0 4.94999
			CHANNELS 3 Zrotation Xrotation Yrotation
			JOINT Model55
			{
				OFFSET 18.5642 0 0
				CHANNELS 3 Zrotation Xrotation Yrotation
				JOINT Model56
				{
					OFFSET 21.2884 0 1.52588e-005
					CHANNELS 3 Zrotation Xrotation Yrotation
					JOINT Model57
					{
						OFFSET 30.261 0 0
						CHANNELS 3 Zrotation Xrotation Yrotation
						JOINT Model58
						{
							OFFSET 11.7259 0 0
							CHANNELS 3 Zrotation Xrotation Yrotation
							JOINT Model59
							{
								OFFSET 10.682 0 0
								CHANNELS 3 Zrotation Xrotation Yrotation
								End Site
								{
									OFFSET 0 0 0
								}
							}
						}
					}
				}
			}
		}
	}
	JOINT Model60
	{
		OFFSET -4.38026 -2.14632 -1.11516
		CHANNELS 3 Zrotation Xrotation Yrotation
		JOINT Model61
		{
			OFFSET 0 0 -4.94999
			CHANNELS 3 Zrotation Xrotation Yrotation
			JOINT Model62
			{
				OFFSET -18.5642 0 0
				CHANNELS 3 Zrotation Xrotation Yrotation
				JOINT Model63
				{
					OFFSET -21.2884 0 -1.52588e-005
					CHANNELS 3 Zrotation Xrotation Yrotation
					JOINT Model64
					{
						OFFSET -30.261 0 0
						CHANNELS 3 Zrotation Xrotation Yrotation
						JOINT Model65
						{
							OFFSET -11.7259 0 0
							CHANNELS 3 Zrotation Xrotation Yrotation
							JOINT Model66
							{
								OFFSET -10.682 0 0
								CHANNELS 3 Zrotation Xrotation Yrotation
								End Site
								{
									OFFSET 0 0 0
								}
							}
						}
					}
				}
			}
		}
	}
}
MOTION
Frames: 4
Frame Time: 0.033333
-0.578081 204.471 -516.254 -4.76519 20.1304 -2.131 -180 4.29621e-031 -90 16.1318 0.476792 1.75106 20.421 1.00575 2.10392 20.4077 1.07996 2.1762 24.4924 -5.855 2.20419 -15.0005 4.15799 -1.26281 120.092 75.5343 58.4939 -4.23473 9.7253 4.41394 -167.277 84.4999 48.8109 151.847 -10.8576 -11.9144 7.01649e-006 5.33353 2.92646e-005 -88.7458 4.13 0.362481 1.03854e-006 5.75167 1.10491e-006 2.67991 -0.0335588 -1.43493 -72.6598 37.7008 41.5176 33.3638 2.10362 14.835 0.588947 0.308273 6.35287 -99.6409 81.413 100.35 -0.0181409 2.77847e-005 -0.117315 -0.124139 0.00241113 -0.799296 -79.8382 79.5773 80.5374 -0.000218566 -0.000220917 2.19079e-005 -0.000956226 0.000122903 -2.73208e-005 -66.7416 80.4058 67.2171 -0.000437132 1.59515e-005 -2.73208e-005 -0.000136604 -0.000109283 -5.46415e-005 -6.42159 81.2158 8.01779 -0.000218566 1.69077e-005 0.00021214 0.000901584 -0.000184802 -0.000218566 -59.9282 75.5373 58.5147 -3.26518 11.868 4.86854 -167.277 84.4999 48.8109 153.946 -10.9188 -21.8976 3.20885e-006 6.66597 3.01827e-005 -89.7262 -1.12889 0.708075 -3.2277e-006 -2.12206 1.35381e-006 8.61864 0.45267 6.00176 -72.2202 37.4765 41.1161 33.3638 2.10361 14.835 0.588946 0.308273 6.35287 -99.6409 81.413 100.35 -0.0181409 3.00782e-005 -0.117315 -0.124139 0.00241113 -0.799296 -79.8382 79.5773 80.5374 -0.000218566 -0.000218566 2.18992e-005 -0.000956226 0.000122996 -2.73208e-005 -66.7416 80.4058 67.2171 -0.000437132 1.48813e-005 -2.73208e-005 -0.000136604 -0.000109283 -5.46415e-005 -6.42159 81.2158 8.01779 -0.000218566 1.95788e-005 0.000212297 0.000901583 -0.000191245 -0.000218566 0.000811311 0.56661 89.91 -100.68 1.56327 -4.9281 -6.55995e-007 -0.214238 -1.36587e-008 67.5052 -0.026177 -0.581234 3.66872e-007 -0.152006 3.30581e-007 -70.731 -3.93006 0.985314 -35.4947 4.97566e-007 1.3355e-007 -180 -0.566579 -90.09 -97.5648 -3.02385 -10.4326 -1.13131e-006 -9.62926 -4.70068e-008 69.8334 8.03457 7.29774 5.14489e-007 12.0322 5.62972e-007 -67.7201 -2.22777 0.296889 -35.4947 3.58363e-009 1.93949e-008 
-0.567469 192.895 -527.132 -4.90217 7.30152 -2.35639 -180 4.29621e-031 -90 13.3761 0.475734 1.69915 17.5223 0.954064 2.18644 17.5123 0.987106 2.24341 24.4924 -5.855 2.20419 -9.74528 3.64016 -1.50161 120.092 75.5343 58.4939 -5.29561 8.26437 4.1831 -167.277 84.4999 48.8109 154.163 -10.4522 -12.3907 6.36963e-006 6.59172 2.93318e-005 -85.8923 4.66019 0.7139 1.02387e-006 6.5078 1.10648e-006 2.63266 -0.276631 -11.9953 -72.6598 37.7008 41.5176 33.3638 2.10362 14.835 0.588947 0.308273 6.35287 -99.6409 81.413 100.35 -0.0181409 2.77847e-005 -0.117315 -0.124139 0.00241113 -0.799296 -79.8382 79.5773 80.5374 -0.000218566 -0.000220917 2.19079e-005 -0.000956226 0.000122903 -2.73208e-005 -66.7416 80.4058 67.2171 -0.000437132 1.59515e-005 -2.73208e-005 -0.000136604 -0.000109283 -5.46415e-005 -6.42159 81.2158 8.01779 -0.000218566 1.69077e-005 0.00021214 0.000901584 -0.000184802 -0.000218566 -59.9282 75.5373 58.5147 -4.18742 11.6866 5.0704 -167.277 84.4999 48.8109 164.657 -15.0709 -22.9556 4.0549e-006 5.06598 3.00962e-005 -88.0172 0.498622 1.8561 -3.28478e-006 0.294371 1.3529e-006 10.5693 0.162071 1.75199 -72.2202 37.4765 41.1161 33.3638 2.10361 14.835 0.588946 0.308273 6.35287 -99.6409 81.413 100.35 -0.0181409 3.00782e-005 -0.117315 -0.124139 0.00241113 -0.799296 -79.8382 79.5773 80.5374 -0.000218566 -0.000218566 2.18992e-005 -0.000956226 0.000122996 -2.73208e-005 -66.7416 80.4058 67.2171 -0.000437132 1.48813e-005 -2.73208e-005 -0.000136604 -0.000109283 -5.46415e-005 -6.42159 81.2158 8.01779 -0.000218566 1.95788e-005 0.000212297 0.000901583 -0.000191245 -0.000218566 0.000811311 0.56661 89.91 -88.291 1.2642 -3.92601 -6.55807e-007 0.575885 -1.36593e-008 44.1453 0.178025 -2.28154 3.64929e-007 0.18475 3.30582e-007 -68.0956 -3.94003 1.19535 -35.4947 4.97566e-007 1.3355e-007 -180 -0.566579 -90.09 -87.4904 -4.06066 -6.24978 -1.13012e-006 -8.19612 -4.68227e-008 48.3279 6.96486 7.91595 5.30245e-007 10.455 5.59899e-007 -69.7284 -4.16427 1.18428 -35.4947 3.58367e-009 1.93949e-008 
-0.598974 179.36 -536.785 -5.79107 -7.09535 -2.11694 -180 4.29621e-031 -90 12.0684 0.51705 1.64203 16.2733 1.02454 2.22023 16.2636 1.04231 2.27655 24.4924 -5.855 2.20419 -4.45541 2.71683 -1.70497 120.092 75.5343 58.4939 -5.75088 8.16996 4.26573 -167.277 84.4999 48.8109 163.407 -11.9732 -10.7627 6.41545e-006 6.50278 2.93266e-005 -81.6795 4.10896 2.27405 1.04086e-006 5.63194 1.10468e-006 5.90145 -0.930757 -17.9101 -72.6598 37.7008 41.5176 33.3638 2.10362 14.835 0.588947 0.308273 6.35287 -99.6409 81.413 100.35 -0.0181409 2.77847e-005 -0.117315 -0.124139 0.00241113 -0.799296 -79.8382 79.5773 80.5374 -0.000218566 -0.000220917 2.19079e-005 -0.000956226 0.000122903 -2.73208e-005 -66.7416 80.4058 67.2171 -0.000437132 1.59515e-005 -2.73208e-005 -0.000136604 -0.000109283 -5.46415e-005 -6.42159 81.2158 8.01779 -0.000218566 1.69077e-005 0.00021214 0.000901584 -0.000184802 -0.000218566 -59.9282 75.5373 58.5147 -3.79281 9.17567 4.10969 -167.277 84.4999 48.8109 174.285 -16.4646 -18.4658 3.89367e-006 5.37158 3.01108e-005 -79.2748 -0.254062 2.45071 -3.25559e-006 -0.941904 1.35307e-006 11.8499 -0.127757 -1.23103 -72.2202 37.4765 41.1161 33.3638 2.10361 14.835 0.588946 0.308273 6.35287 -99.6409 81.413 100.35 -0.0181409 3.00782e-005 -0.117315 -0.124139 0.00241113 -0.799296 -79.8382 79.5773 80.5374 -0.000218566 -0.000218566 2.18992e-005 -0.000956226 0.000122996 -2.73208e-005 -66.7416 80.4058 67.2171 -0.000437132 1.48813e-005 -2.73208e-005 -0.000136604 -0.000109283 -5.46415e-005 -6.42159 81.2158 8.01779 -0.000218566 1.95788e-005 0.000212297 0.000901583 -0.000191245 -0.000218566 0.000811311 0.56661 89.91 -73.862 1.16821 -3.79668 -6.55655e-007 1.21296 -1.36616e-008 26.052 1.2337 -4.2029 3.55562e-007 1.80765 3.30745e-007 -60.5857 -4.11392 1.9177 -35.4947 4.97566e-007 1.3355e-007 -180 -0.566579 -90.09 -74.9594 -3.15366 0.630733 -1.12708e-006 -4.48509 -4.64868e-008 30.2447 4.36168 3.05974 5.69166e-007 6.49461 5.5416e-007 -66.5124 -2.25073 0.382198 -35.4947 3.58372e-009 1.93949e-008 
-0.74827 164.098 -544.913 -6.09437 -21.8313 -2.10275 -180 4.29621e-031 -90 11.1531 0.48819 1.62722 15.3992 0.961546 2.27715 15.3914 0.968528 2.32336 24.4924 -5.855 2.20419 0.477498 1.87592 -1.38455 120.092 75.5343 58.4939 -5.92059 7.02928 3.89904 -167.277 84.4999 48.8109 169.857 -12.8171 -9.21886 6.45372e-006 6.4285 2.93223e-005 -74.7489 0.158787 3.35577 1.15628e-006 -0.364953 1.09937e-006 4.06109 -0.74802 -20.8644 -72.6598 37.7008 41.5176 33.3638 2.10362 14.835 0.588947 0.308273 6.35287 -99.6409 81.413 100.35 -0.0181409 2.77847e-005 -0.117315 -0.124139 0.00241113 -0.799296 -79.8382 79.5773 80.5374 -0.000218566 -0.000220917 2.19079e-005 -0.000956226 0.000122903 -2.73208e-005 -66.7416 80.4058 67.2171 -0.000437132 1.59515e-005 -2.73208e-005 -0.000136604 -0.000109283 -5.46415e-005 -6.42159 81.2158 8.01779 -0.000218566 1.69077e-005 0.00021214 0.000901584 -0.000184802 -0.000218566 -59.9282 75.5373 58.5147 -2.81769 5.89938 2.77227 -167.277 84.4999 48.8109 179.187 -15.5218 -16.1143 2.73103e-006 7.56516 3.02418e-005 -66.3765 -2.53004 2.84446 -3.17244e-006 -4.45423 1.35698e-006 13.1009 -0.574757 -5.00228 -72.2202 37.4765 41.1161 33.3638 2.10361 14.835 0.588946 0.308273 6.35287 -99.6409 81.413 100.35 -0.0181409 3.00782e-005 -0.117315 -0.124139 0.00241113 -0.799296 -79.8382 79.5773 80.5374 -0.000218566 -0.000218566 2.18992e-005 -0.000956226 0.000122996 -2.73208e-005 -66.7416 80.4058 67.2171 -0.000437132 1.48813e-005 -2.73208e-005 -0.000136604 -0.000109283 -5.46415e-005 -6.42159 81.2158 8.01779 -0.000218566 1.95788e-005 0.000212297 0.000901583 -0.000191245 -0.000218566 0.000811311 0.56661 89.91 -67.8448 0.765813 -3.91117 -6.55731e-007 0.896447 -1.36603e-008 33.498 2.8248 -3.59842 3.41819e-007 4.18269 3.31463e-007 -71.0753 -1.97174 -0.0297246 -36.4857 2.4979 -0.136016 -180 -0.566579 -90.09 -66.8556 -1.26422 4.43293 -1.12459e-006 -1.40954 -4.63585e-008 30.0259 3.14847 -1.84991 5.86877e-007 4.66913 5.52437e-007 -69.8021 -3.74084 0.958747 -35.4947 3.58381e-009 1.93948e-008 
